<svg id="SvgjsSvg1001" width="256" height="256" xmlns="http://www.w3.org/2000/svg" version="1.1" xmlns:xlink="http://www.w3.org/1999/xlink" xmlns:svgjs="http://svgjs.com/svgjs"><defs id="SvgjsDefs1002"></defs><g id="SvgjsG1008"><svg xmlns="http://www.w3.org/2000/svg" data-name="Capa 13" viewBox="0 0 100 100" width="256" height="256"><path d="M18.9,28.06H16v8.82a.43.43,0,0,1-.3.44.37.37,0,0,1-.33-.08.36.36,0,0,1-.15-.3V28.06H10.4v8.82a.43.43,0,0,1-.3.44.39.39,0,0,1-.34-.08.37.37,0,0,1-.14-.3V28.06H6.68a1.84,1.84,0,0,0-1.84,1.85v9.17a8.12,8.12,0,0,0,5.1,7.59v27.4a2.86,2.86,0,0,0,5.71,0V46.67a8,8,0,0,0,5.1-7.41V29.91A1.85,1.85,0,0,0,18.9,28.06Zm-.15,11.2A6,6,0,0,1,14.38,45l-.73.2V74.07a.86.86,0,0,1-.86.85.85.85,0,0,1-.85-.85V45.2L11.21,45a6.09,6.09,0,0,1-4.37-5.91v-9h.78v6.88a2.39,2.39,0,1,0,4.78-.06V30.06h.78v6.88a2.39,2.39,0,0,0,2.87,2.34A2.42,2.42,0,0,0,18,36.88V30.06h.79ZM52.36,19a31,31,0,1,0,31,31A31,31,0,0,0,52.36,19Zm0,60a29,29,0,1,1,29-29A29,29,0,0,1,52.36,79Zm0-49.85A20.85,20.85,0,1,0,73.2,50,20.88,20.88,0,0,0,52.36,29.15Zm0,39.7A18.85,18.85,0,1,1,71.2,50,18.88,18.88,0,0,1,52.36,68.85ZM95.13,28h-1a9.37,9.37,0,0,0-9.31,9.35v12a2.42,2.42,0,0,0,2.41,2.42h2.22V74a2.91,2.91,0,0,0,2.34,2.91,2.24,2.24,0,0,0,.52,0,2.86,2.86,0,0,0,2.85-2.85V29Zm-2,46.1a.83.83,0,0,1-.31.65.82.82,0,0,1-.7.19,1,1,0,0,1-.7-1V50.8l0-1H87.23a.41.41,0,0,1-.41-.42v-12A7.36,7.36,0,0,1,93.16,30Z" fill="#000000" class="color000 svgShape"></path></svg></g></svg>